<?xml version="1.0" encoding="UTF-8" standalone="no"?>
<!-- Created with Inkscape (http://www.inkscape.org/) -->

<svg
   xmlns:dc="http://purl.org/dc/elements/1.1/"
   xmlns:cc="http://creativecommons.org/ns#"
   xmlns:rdf="http://www.w3.org/1999/02/22-rdf-syntax-ns#"
   xmlns:svg="http://www.w3.org/2000/svg"
   xmlns="http://www.w3.org/2000/svg"
   version="1.1"
   width="741.83057"
   height="847.99261"
   id="svg2">
  <title
     id="title4644">Cute Rain Cloud</title>
  <defs
     id="defs4">
    <filter
       x="-0.48000002"
       y="-0.48000002"
       width="1.96"
       height="1.96"
       color-interpolation-filters="sRGB"
       id="filter3941">
      <feGaussianBlur
         id="feGaussianBlur3943"
         stdDeviation="13.142858" />
    </filter>
    <filter
       color-interpolation-filters="sRGB"
       id="filter4638">
      <feGaussianBlur
         id="feGaussianBlur4640"
         stdDeviation="17.511936" />
    </filter>
  </defs>
  <metadata
     id="metadata7">
    <rdf:RDF>
      <cc:Work
         rdf:about="">
        <dc:format>image/svg+xml</dc:format>
        <dc:type
           rdf:resource="http://purl.org/dc/dcmitype/StillImage" />
        <dc:title>Cute Rain Cloud</dc:title>
        <dc:date>2013-05-30</dc:date>
        <dc:creator>
          <cc:Agent>
            <dc:title>Urs Roesch</dc:title>
          </cc:Agent>
        </dc:creator>
        <cc:license
           rdf:resource="http://creativecommons.org/licenses/publicdomain/" />
        <dc:rights>
          <cc:Agent>
            <dc:title></dc:title>
          </cc:Agent>
        </dc:rights>
        <dc:publisher>
          <cc:Agent>
            <dc:title>Open Clipart</dc:title>
          </cc:Agent>
        </dc:publisher>
        <dc:identifier></dc:identifier>
        <dc:language>en</dc:language>
        <dc:subject>
          <rdf:Bag>
            <rdf:li>Cute</rdf:li>
            <rdf:li>Cloud</rdf:li>
            <rdf:li>Rain</rdf:li>
          </rdf:Bag>
        </dc:subject>
        <dc:description>Cute rain cloud</dc:description>
      </cc:Work>
      <cc:License
         rdf:about="http://creativecommons.org/licenses/publicdomain/">
        <cc:permits
           rdf:resource="http://creativecommons.org/ns#Reproduction" />
        <cc:permits
           rdf:resource="http://creativecommons.org/ns#Distribution" />
        <cc:permits
           rdf:resource="http://creativecommons.org/ns#DerivativeWorks" />
      </cc:License>
    </rdf:RDF>
  </metadata>
  <g
     transform="translate(-20.915524,-114.33165)"
     id="layer4"
     style="display:inline">
    <g
       transform="matrix(0.37705831,0,0,0.37705831,198.36762,444.05183)"
       id="g4449">
      <path
         d="m 295.17232,767.86888 c -18.6362,62.73831 -51.49326,108.67511 -42.0186,161.45498 9.47466,52.77983 112.31479,54.07456 117.21332,-8.5909 4.89854,-62.66544 -41.76258,-98.86102 -75.19472,-152.86408 z"
         id="path4402"
         style="fill:#216778;stroke:none" />
      <path
         d="m 296.4375,790.15625 c -14.54433,41.33876 -38.02327,81.58701 -36.93935,126.74957 -0.56752,18.3516 12.51269,35.79548 30.37685,40.15668 22.67847,7.62835 51.21646,2.73335 65.875,-17.1875 11.66076,-18.80936 7.39989,-42.96355 0.71875,-62.875 -12.41378,-34.21523 -38.62416,-60.95311 -58.75,-90.625 -0.42708,1.26042 -0.85417,2.52083 -1.28125,3.78125 z"
         id="path4431"
         style="fill:#87cdde;stroke:none" />
    </g>
    <g
       transform="matrix(0.43682773,0,0,0.43682773,178.05681,336.90867)"
       id="g4453">
      <path
         d="m 135.36781,770.72602 c -15.06412,52.90376 -41.623331,91.63974 -33.96472,136.1461 7.65861,44.50632 90.78693,45.5981 94.74654,-7.24424 3.95961,-52.84231 -33.75777,-83.36405 -60.78182,-128.90186 z"
         id="path4445"
         style="fill:#216778;stroke:none" />
      <path
         d="m 136.39048,789.51973 c -11.75655,34.8587 -30.73518,68.79784 -29.85902,106.88094 -0.45874,15.47489 10.11433,30.18435 24.55439,33.86191 18.33158,6.43257 41.39957,2.30489 53.24845,-14.49327 9.42569,-15.8609 5.98152,-36.22879 0.58098,-53.01902 -10.03438,-28.85182 -31.2209,-51.39841 -47.48913,-76.41908 -0.34522,1.06285 -0.69045,2.12568 -1.03567,3.18852 z"
         id="path4447"
         style="fill:#87cdde;stroke:none" />
    </g>
    <g
       transform="matrix(0.37705831,0,0,0.37705831,346.93905,438.33754)"
       id="g4457">
      <path
         d="m 295.17232,767.86888 c -18.6362,62.73831 -51.49326,108.67511 -42.0186,161.45498 9.47466,52.77983 112.31479,54.07456 117.21332,-8.5909 4.89854,-62.66544 -41.76258,-98.86102 -75.19472,-152.86408 z"
         id="path4459"
         style="fill:#216778;stroke:none" />
      <path
         d="m 296.4375,790.15625 c -14.54433,41.33876 -38.02327,81.58701 -36.93935,126.74957 -0.56752,18.3516 12.51269,35.79548 30.37685,40.15668 22.67847,7.62835 51.21646,2.73335 65.875,-17.1875 11.66076,-18.80936 7.39989,-42.96355 0.71875,-62.875 -12.41378,-34.21523 -38.62416,-60.95311 -58.75,-90.625 -0.42708,1.26042 -0.85417,2.52083 -1.28125,3.78125 z"
         id="path4461"
         style="fill:#87cdde;stroke:none" />
    </g>
    <g
       transform="matrix(0.43682773,0,0,0.43682773,326.62824,331.19438)"
       id="g4463">
      <path
         d="m 135.36781,770.72602 c -15.06412,52.90376 -41.623331,91.63974 -33.96472,136.1461 7.65861,44.50632 90.78693,45.5981 94.74654,-7.24424 3.95961,-52.84231 -33.75777,-83.36405 -60.78182,-128.90186 z"
         id="path4465"
         style="fill:#216778;stroke:none" />
      <path
         d="m 136.39048,789.51973 c -11.75655,34.8587 -30.73518,68.79784 -29.85902,106.88094 -0.45874,15.47489 10.11433,30.18435 24.55439,33.86191 18.33158,6.43257 41.39957,2.30489 53.24845,-14.49327 9.42569,-15.8609 5.98152,-36.22879 0.58098,-53.01902 -10.03438,-28.85182 -31.2209,-51.39841 -47.48913,-76.41908 -0.34522,1.06285 -0.69045,2.12568 -1.03567,3.18852 z"
         id="path4467"
         style="fill:#87cdde;stroke:none" />
    </g>
    <g
       transform="matrix(0.37705831,0,0,0.37705831,506.93905,438.33754)"
       id="g4469">
      <path
         d="m 295.17232,767.86888 c -18.6362,62.73831 -51.49326,108.67511 -42.0186,161.45498 9.47466,52.77983 112.31479,54.07456 117.21332,-8.5909 4.89854,-62.66544 -41.76258,-98.86102 -75.19472,-152.86408 z"
         id="path4471"
         style="fill:#216778;stroke:none" />
      <path
         d="m 296.4375,790.15625 c -14.54433,41.33876 -38.02327,81.58701 -36.93935,126.74957 -0.56752,18.3516 12.51269,35.79548 30.37685,40.15668 22.67847,7.62835 51.21646,2.73335 65.875,-17.1875 11.66076,-18.80936 7.39989,-42.96355 0.71875,-62.875 -12.41378,-34.21523 -38.62416,-60.95311 -58.75,-90.625 -0.42708,1.26042 -0.85417,2.52083 -1.28125,3.78125 z"
         id="path4473"
         style="fill:#87cdde;stroke:none" />
    </g>
    <g
       transform="matrix(0.43682773,0,0,0.43682773,486.62824,331.19438)"
       id="g4475">
      <path
         d="m 135.36781,770.72602 c -15.06412,52.90376 -41.623331,91.63974 -33.96472,136.1461 7.65861,44.50632 90.78693,45.5981 94.74654,-7.24424 3.95961,-52.84231 -33.75777,-83.36405 -60.78182,-128.90186 z"
         id="path4477"
         style="fill:#216778;stroke:none" />
      <path
         d="m 136.39048,789.51973 c -11.75655,34.8587 -30.73518,68.79784 -29.85902,106.88094 -0.45874,15.47489 10.11433,30.18435 24.55439,33.86191 18.33158,6.43257 41.39957,2.30489 53.24845,-14.49327 9.42569,-15.8609 5.98152,-36.22879 0.58098,-53.01902 -10.03438,-28.85182 -31.2209,-51.39841 -47.48913,-76.41908 -0.34522,1.06285 -0.69045,2.12568 -1.03567,3.18852 z"
         id="path4479"
         style="fill:#87cdde;stroke:none" />
    </g>
    <g
       transform="matrix(0.37705831,0,0,0.37705831,350.93905,574.05183)"
       id="g4481">
      <path
         d="m 295.17232,767.86888 c -18.6362,62.73831 -51.49326,108.67511 -42.0186,161.45498 9.47466,52.77983 112.31479,54.07456 117.21332,-8.5909 4.89854,-62.66544 -41.76258,-98.86102 -75.19472,-152.86408 z"
         id="path4483"
         style="fill:#216778;stroke:none" />
      <path
         d="m 296.4375,790.15625 c -14.54433,41.33876 -38.02327,81.58701 -36.93935,126.74957 -0.56752,18.3516 12.51269,35.79548 30.37685,40.15668 22.67847,7.62835 51.21646,2.73335 65.875,-17.1875 11.66076,-18.80936 7.39989,-42.96355 0.71875,-62.875 -12.41378,-34.21523 -38.62416,-60.95311 -58.75,-90.625 -0.42708,1.26042 -0.85417,2.52083 -1.28125,3.78125 z"
         id="path4485"
         style="fill:#87cdde;stroke:none" />
    </g>
    <g
       transform="matrix(0.43682773,0,0,0.43682773,326.62824,456.90867)"
       id="g4487">
      <path
         d="m 135.36781,770.72602 c -15.06412,52.90376 -41.623331,91.63974 -33.96472,136.1461 7.65861,44.50632 90.78693,45.5981 94.74654,-7.24424 3.95961,-52.84231 -33.75777,-83.36405 -60.78182,-128.90186 z"
         id="path4489"
         style="fill:#216778;stroke:none" />
      <path
         d="m 136.39048,789.51973 c -11.75655,34.8587 -30.73518,68.79784 -29.85902,106.88094 -0.45874,15.47489 10.11433,30.18435 24.55439,33.86191 18.33158,6.43257 41.39957,2.30489 53.24845,-14.49327 9.42569,-15.8609 5.98152,-36.22879 0.58098,-53.01902 -10.03438,-28.85182 -31.2209,-51.39841 -47.48913,-76.41908 -0.34522,1.06285 -0.69045,2.12568 -1.03567,3.18852 z"
         id="path4491"
         style="fill:#87cdde;stroke:none" />
    </g>
    <g
       transform="matrix(0.37705831,0,0,0.37705831,522.36762,591.4804)"
       id="g4493">
      <path
         d="m 295.17232,767.86888 c -18.6362,62.73831 -51.49326,108.67511 -42.0186,161.45498 9.47466,52.77983 112.31479,54.07456 117.21332,-8.5909 4.89854,-62.66544 -41.76258,-98.86102 -75.19472,-152.86408 z"
         id="path4495"
         style="fill:#216778;stroke:none" />
      <path
         d="m 296.4375,790.15625 c -14.54433,41.33876 -38.02327,81.58701 -36.93935,126.74957 -0.56752,18.3516 12.51269,35.79548 30.37685,40.15668 22.67847,7.62835 51.21646,2.73335 65.875,-17.1875 11.66076,-18.80936 7.39989,-42.96355 0.71875,-62.875 -12.41378,-34.21523 -38.62416,-60.95311 -58.75,-90.625 -0.42708,1.26042 -0.85417,2.52083 -1.28125,3.78125 z"
         id="path4497"
         style="fill:#87cdde;stroke:none" />
    </g>
    <g
       transform="matrix(0.43682773,0,0,0.43682773,498.05681,468.33724)"
       id="g4499">
      <path
         d="m 135.36781,770.72602 c -15.06412,52.90376 -41.623331,91.63974 -33.96472,136.1461 7.65861,44.50632 90.78693,45.5981 94.74654,-7.24424 3.95961,-52.84231 -33.75777,-83.36405 -60.78182,-128.90186 z"
         id="path4501"
         style="fill:#216778;stroke:none" />
      <path
         d="m 136.39048,789.51973 c -11.75655,34.8587 -30.73518,68.79784 -29.85902,106.88094 -0.45874,15.47489 10.11433,30.18435 24.55439,33.86191 18.33158,6.43257 41.39957,2.30489 53.24845,-14.49327 9.42569,-15.8609 5.98152,-36.22879 0.58098,-53.01902 -10.03438,-28.85182 -31.2209,-51.39841 -47.48913,-76.41908 -0.34522,1.06285 -0.69045,2.12568 -1.03567,3.18852 z"
         id="path4503"
         style="fill:#87cdde;stroke:none" />
    </g>
    <g
       transform="matrix(0.37705831,0,0,0.37705831,208.08191,597.19469)"
       id="g4505">
      <path
         d="m 295.17232,767.86888 c -18.6362,62.73831 -51.49326,108.67511 -42.0186,161.45498 9.47466,52.77983 112.31479,54.07456 117.21332,-8.5909 4.89854,-62.66544 -41.76258,-98.86102 -75.19472,-152.86408 z"
         id="path4507"
         style="fill:#216778;stroke:none" />
      <path
         d="m 296.4375,790.15625 c -14.54433,41.33876 -38.02327,81.58701 -36.93935,126.74957 -0.56752,18.3516 12.51269,35.79548 30.37685,40.15668 22.67847,7.62835 51.21646,2.73335 65.875,-17.1875 11.66076,-18.80936 7.39989,-42.96355 0.71875,-62.875 -12.41378,-34.21523 -38.62416,-60.95311 -58.75,-90.625 -0.42708,1.26042 -0.85417,2.52083 -1.28125,3.78125 z"
         id="path4509"
         style="fill:#87cdde;stroke:none" />
    </g>
    <g
       transform="matrix(0.43682773,0,0,0.43682773,183.7711,474.05153)"
       id="g4511">
      <path
         d="m 135.36781,770.72602 c -15.06412,52.90376 -41.623331,91.63974 -33.96472,136.1461 7.65861,44.50632 90.78693,45.5981 94.74654,-7.24424 3.95961,-52.84231 -33.75777,-83.36405 -60.78182,-128.90186 z"
         id="path4513"
         style="fill:#216778;stroke:none" />
      <path
         d="m 136.39048,789.51973 c -11.75655,34.8587 -30.73518,68.79784 -29.85902,106.88094 -0.45874,15.47489 10.11433,30.18435 24.55439,33.86191 18.33158,6.43257 41.39957,2.30489 53.24845,-14.49327 9.42569,-15.8609 5.98152,-36.22879 0.58098,-53.01902 -10.03438,-28.85182 -31.2209,-51.39841 -47.48913,-76.41908 -0.34522,1.06285 -0.69045,2.12568 -1.03567,3.18852 z"
         id="path4515"
         style="fill:#87cdde;stroke:none" />
    </g>
  </g>
  <g
     transform="translate(-20.915524,-114.33165)"
     id="layer1"
     style="display:inline">
    <g
       id="g3947">
      <path
         d="m 367.1875,114.375 c -49.32552,0.018 -96.44689,31.944 -115.6875,77.0625 -32.49163,-23.42674 -77.99387,-21.84304 -112.46402,-3.50477 -33.60828,16.49907 -62.206316,48.19205 -66.00473,86.62977 -0.777919,10.21315 1.187682,20.39343 3.75,30.21875 -40.834758,20.7196 -65.690858,71.46906 -52.151464,116.23947 6.332189,20.41754 21.323815,37.58395 39.901464,47.69803 -15.576969,25.55793 -25.564615,58.05122 -15.112755,87.43449 11.440461,29.49085 44.266282,45.83911 74.925255,44.50301 16.77162,-0.0681 33.3371,-3.88965 49.0625,-9.53125 34.19627,52.14338 103.92587,78.16361 163.92103,60.38228 23.62528,-7.70252 44.8806,-22.89414 59.17272,-43.22603 46.63512,31.73244 110.73619,31.14959 159.90625,5.375 33.66992,-18.24872 59.81029,-53.43931 61.23781,-92.53031 -1.29385,-4.37358 3.99633,-1.51238 6.23094,-2.68844 61.63111,-6.79663 111.99247,-65.41296 109.5,-127.46875 0.3828,-5.60931 -3.11709,-13.312 3.09375,-16.5625 27.94602,-25.11535 34.48713,-70.43886 15.34375,-102.6875 -17.18424,-32.39745 -52.4273,-53.96162 -88.9375,-55.5 -2.65325,-46.03264 -38.92261,-86.05735 -83.05787,-97.14048 -43.85765,-12.28005 -94.5934,0.2331 -125.87963,33.45298 -20.90122,-25.3332 -54.08149,-39.07584 -86.75,-38.15625 z"
         id="path3113"
         style="fill:#999999;stroke:none" />
      <path
         d="m 369.60643,126.35341 c -47.27227,-0.21813 -97.01802,29.41274 -112.46875,86.1875 -66.7385,-72.82115 -206.979849,18.74715 -164.281252,98.25 -70.966954,27.23823 -84.3643932,126.51036 -10.5625,152.46875 -67.130614,97.72349 11.29622,151.39941 96.062502,112.65625 35.76322,71.25204 164.57469,105.13417 214.84375,14.5625 64.71229,59.46418 216.83261,29.88013 212.875,-83.59375 63.10381,4.18438 126.95951,-57.55897 113.46875,-134.4375 67.19667,-47.91601 17.43032,-149.70345 -68.84375,-143.8125 5.2658,-97.71019 -130.93054,-142.550223 -197.84375,-56.5625 -17.98431,-30.62471 -49.99118,-45.56528 -83.25,-45.71875 z"
         id="path3003"
         style="fill:#d5e5ff;stroke:none" />
      <path
         d="m 286.88332,381.62088 a 14.142136,14.142136 0 1 1 -28.28428,0 14.142136,14.142136 0 1 1 28.28428,0 z"
         transform="translate(6,0)"
         id="path3127"
         style="fill:#999999;fill-opacity:1;stroke:none" />
      <path
         d="m 286.88332,381.62088 a 14.142136,14.142136 0 1 1 -28.28428,0 14.142136,14.142136 0 1 1 28.28428,0 z"
         transform="translate(246.47722,-18.162441)"
         id="path3129"
         style="fill:#999999;fill-opacity:1;stroke:none" />
      <path
         d="m 464.15625,434 -9.25,2.125 -0.625,0.78125 c 0.85555,10.78659 -5.9e-4,21.85851 -3.6875,32 -5.21629,18.7315 -26.60152,27.8521 -44.71875,24.5 -23.82173,-3.29559 -39.60466,-25.58497 -45.46875,-47.25 L 350.75,448.375 c 6.20282,21.71833 18.99925,42.51039 40.375,51.28125 20.053,7.76634 46.52416,5.2441 60.5625,-12.21875 11.57892,-14.961 14.02604,-34.80875 12.46875,-53.4375 z"
         id="path3131"
         style="fill:#999999;stroke:none" />
      <path
         d="m 277.14286,513.79077 a 32.857143,32.857143 0 1 1 -65.71428,0 32.857143,32.857143 0 1 1 65.71428,0 z"
         transform="translate(11.428571,-14.285714)"
         id="path3159"
         style="fill:#ffaaaa;fill-opacity:1;stroke:none;filter:url(#filter3941)" />
      <path
         d="m 277.14286,513.79077 a 32.857143,32.857143 0 1 1 -65.71428,0 32.857143,32.857143 0 1 1 65.71428,0 z"
         transform="translate(348.57143,-77.142857)"
         id="path3945"
         style="fill:#ffaaaa;fill-opacity:1;stroke:none;filter:url(#filter3941)" />
    </g>
  </g>
</svg>
